<?xml version="1.0" encoding="UTF-8"?>
<svg version="1.1" xmlns="http://www.w3.org/2000/svg" width="1080" height="1080">
<path d="M0 0 C5.59944603 0.38934201 9.69688 2.00012494 14.5625 4.5625 C15.25939941 4.92182617 15.95629883 5.28115234 16.67431641 5.65136719 C18.79131626 6.75241867 20.89728166 7.87194517 23 9 C24.16144531 9.62261719 25.32289063 10.24523437 26.51953125 10.88671875 C52.12417011 25.10489423 75.69351257 43.38656721 97.9140625 62.3828125 C100.75605565 64.80691756 103.65290065 67.15731399 106.5625 69.5 C111.64039439 73.63041555 116.44563853 78.00831768 121.2421875 82.45703125 C123.40340548 84.44988239 125.58346969 86.39707785 127.8125 88.3125 C141.60498116 100.33147645 154.48604904 113.32678506 167.40039062 126.27001953 C169.99989821 128.87527642 172.60394544 131.47594266 175.20929718 134.07535362 C177.24789385 136.11031514 179.28407664 138.14767866 181.31956482 140.18574905 C182.7377839 141.60494157 184.15798467 143.02215289 185.57824707 144.43930054 C190.0565423 148.93378399 194.41232332 153.47409556 198.53579712 158.29768372 C200.89962645 161.04592661 203.39533008 163.6692161 205.875 166.3125 C210.41348524 171.18585549 214.69348797 176.20303977 218.86328125 181.3984375 C220.95882494 183.94986729 223.13963155 186.38326773 225.375 188.8125 C229.89413633 193.77806748 234.00728894 199.00195927 238.1171875 204.3046875 C240.03118606 206.77187992 241.97267203 209.21225895 243.9453125 211.6328125 C250.9103526 220.18703005 257.3759295 229.00222567 263.65576172 238.0703125 C265.74305777 241.06667792 267.87129396 244.03294693 270 247 C270.56581787 246.79955078 271.13163574 246.59910156 271.71459961 246.39257812 C310.23264481 232.78299741 348.77873507 221.18827005 389.875 219.4375 C390.84824219 219.3957666 391.82148437 219.3540332 392.82421875 219.31103516 C399.55817941 219.0349608 406.26059101 218.82114958 413 219 C413.70334473 219.01256836 414.40668945 219.02513672 415.13134766 219.03808594 C459.37279751 219.92454312 502.03815753 230.65005014 543 247 C546.59907387 243.69946682 549.19649621 239.91943204 551.875 235.875 C562.78445901 219.70943784 575.2909077 204.66108663 587.92578125 189.82592773 C590.74189007 186.51357752 593.48067653 183.15286379 596.1875 179.75 C600.88896171 173.96031569 606.00442339 168.58070952 611.15307617 163.18847656 C614.40288628 159.78196702 617.59593513 156.35120871 620.6796875 152.79296875 C624.06152285 148.8911822 627.67657931 145.28859383 631.375 141.6875 C633.41480601 139.59912718 635.32207962 137.49500727 637.22265625 135.28515625 C641.41346937 130.45274177 645.90541314 125.94798835 650.4375 121.4375 C651.24509766 120.62603516 652.05269531 119.81457031 652.88476562 118.97851562 C657.20738804 114.66285956 661.61178043 110.52188617 666.24243164 106.53930664 C668.60872303 104.46687058 670.80627925 102.2530105 673 100 C676.4904144 96.47245353 680.04644314 93.12615526 683.81640625 89.90234375 C686.00790059 87.99311701 688.14328931 86.02993459 690.2734375 84.05273438 C695.40291074 79.29430171 700.64449899 74.76022032 706.09765625 70.37109375 C709.3896445 67.6816767 712.5997499 64.90796558 715.8125 62.125 C734.109475 46.36049551 753.68273681 32.04371161 774 19 C774.94190186 18.39164307 774.94190186 18.39164307 775.90283203 17.77099609 C783.72640667 12.76029777 791.82177234 8.47701468 800.1875 4.4375 C801.09733643 3.99519043 802.00717285 3.55288086 802.94458008 3.09716797 C803.80204834 2.69256348 804.6595166 2.28795898 805.54296875 1.87109375 C806.30633545 1.50943115 807.06970215 1.14776855 807.85620117 0.77514648 C810 0 810 0 814 0 C817.48146691 9.9959828 820.47480479 20.00908634 822.9375 30.3125 C823.19037781 31.36405777 823.19037781 31.36405777 823.44836426 32.43685913 C834.80385075 79.94126466 839.97210742 129.16811849 839 178 C838.98211426 178.98323242 838.96422852 179.96646484 838.94580078 180.97949219 C837.37687816 257.50168916 828.69402718 351.47510246 791.87109375 420.10400391 C789.65655793 424.92409505 792.44190492 430.44701246 794.15234375 435.0703125 C795.0701398 437.42602812 795.9991268 439.77740519 796.9375 442.125 C797.18331818 442.74359894 797.42913635 443.36219788 797.68240356 443.99954224 C823.54687628 508.96324775 867.33354276 566.18144903 930 599 C931.65372832 599.69814388 933.31529218 600.38033735 935 601 C933.98087851 608.91208863 923.84501837 616.39273356 918.0390625 621.2734375 C915.75796533 623.20494123 913.57264829 625.22415483 911.375 627.25 C905.79657518 632.27736462 899.92523564 636.8712859 893.98632812 641.45947266 C891.8945743 643.08176452 889.81374211 644.71733548 887.734375 646.35546875 C878.07624829 653.94794157 868.27050311 661.29011958 858.25244141 668.40087891 C856.79697944 669.43418433 855.34339111 670.47013623 853.89208984 671.50927734 C837.60469468 683.16694539 820.85888303 694.15883165 804.17346191 705.23414612 C800.18493252 707.88179264 796.19908341 710.5332839 792.21948242 713.19433594 C783.71769374 718.87870772 775.19076006 724.50870159 766.5625 730 C765.4995874 730.67804687 764.4366748 731.35609375 763.34155273 732.0546875 C760.22912517 734.03870507 757.11480906 736.01972404 754 738 C753.15824219 738.53625 752.31648437 739.0725 751.44921875 739.625 C737.39670867 748.57386214 723.21260727 757.30824338 709 766 C707.88447754 766.68223633 706.76895508 767.36447266 705.61962891 768.06738281 C688.76598306 778.36210078 671.81946088 788.495014 654.82269287 798.55142212 C650.52970325 801.09198314 646.24175824 803.64084518 641.95703125 806.1953125 C617.86923789 820.54293381 593.49048075 834.35226883 569 848 C567.40493041 848.89059364 565.8098771 849.78121646 564.21484375 850.671875 C552.51993226 857.19408642 540.76873894 863.61213956 529 870 C527.49155518 870.82008545 527.49155518 870.82008545 525.95263672 871.65673828 C508.75104377 881.0009134 491.4275807 890.0866572 474 899 C472.41010254 899.81645996 472.41010254 899.81645996 470.78808594 900.64941406 C414.1679212 929.66927 414.1679212 929.66927 398.79736328 925.38623047 C396.43766723 924.59619778 394.12763853 923.7249356 391.8125 922.8125 C390.92377197 922.46719238 390.03504395 922.12188477 389.11938477 921.76611328 C361.33103047 910.70736219 334.15416132 896.84685484 308.01147461 882.39575195 C301.58216758 878.84266727 295.09062415 875.43011315 288.5625 872.0625 C279.78038633 867.51987369 271.14686267 862.75737325 262.55932617 857.85791016 C256.0385596 854.13984644 249.47564403 850.51165552 242.875 846.9375 C233.10839925 841.63835101 223.44530786 836.17448072 213.81933594 830.62451172 C210.8322847 828.90336183 207.84204918 827.18782943 204.8515625 825.47265625 C190.96328611 817.49646706 177.15302697 809.39567166 163.39060974 801.20440674 C158.96445237 798.57078337 154.53188191 795.94813602 150.09765625 793.328125 C134.35455019 784.02079274 118.70400145 774.5854671 103.15771484 764.95166016 C99.9399037 762.96285682 96.71523654 760.98564648 93.48828125 759.01171875 C80.54587896 751.09025885 67.70312616 743.03186871 54.9453125 734.81640625 C51.32907076 732.48854447 47.70325462 730.1791857 44.0546875 727.90234375 C30.88242919 719.66210977 18.00198942 711.0042974 5.125 702.3125 C4.20156799 701.68920807 3.27813599 701.06591614 2.32672119 700.42373657 C-6.7675973 694.28130964 -15.8493832 688.12090858 -24.89453125 681.90625 C-25.51935394 681.47697708 -26.14417664 681.04770416 -26.78793335 680.60542297 C-50.63101371 664.1850196 -74.15393817 647.01857426 -96 628 C-96.82242188 627.28972656 -97.64484375 626.57945312 -98.4921875 625.84765625 C-106.34752751 618.93238152 -113.65135968 611.44436409 -121 604 C-119.80518052 600.41554155 -119.18013421 600.26615497 -115.94921875 598.58203125 C-114.69238281 597.91373291 -114.69238281 597.91373291 -113.41015625 597.23193359 C-112.06244141 596.52931396 -112.06244141 596.52931396 -110.6875 595.8125 C-102.79763266 591.58479036 -95.27963559 587.22667361 -88 582 C-86.54787109 580.95779297 -86.54787109 580.95779297 -85.06640625 579.89453125 C-82.00386068 577.6444165 -78.99369152 575.34087363 -76 573 C-75.05253906 572.26007812 -74.10507813 571.52015625 -73.12890625 570.7578125 C-57.7869505 558.2687822 -42.76535547 543.71574642 -31.18896484 527.63769531 C-29.9420954 525.92024147 -28.65720281 524.23692673 -27.36328125 522.5546875 C-6.33835715 494.97502281 9.73370172 463.15524274 21.3671875 430.55859375 C21.7060498 429.61169678 22.04491211 428.6647998 22.39404297 427.68920898 C23.44786663 423.01238883 21.89122858 419.4275497 20.06640625 415.1328125 C-13.61765247 334.33899606 -27.47993647 241.24062239 -1 1 C-0.67 0.67 -0.34 0.34 0 0 Z " fill="#CE7600" transform="translate(133,82)"/>
<path d="M0 0 C1.01578125 0.30550781 2.0315625 0.61101563 3.078125 0.92578125 C11.89705597 3.60211458 19.89648279 7.6762576 28 12 C28.61166016 12.32516602 29.22332031 12.65033203 29.85351562 12.98535156 C56.8563637 27.49016012 81.17704741 49.09428764 99 74 C99.64727051 74.88872803 99.64727051 74.88872803 100.30761719 75.79541016 C107.97955814 86.3757599 114.60310937 97.53083715 121.15771484 108.82617188 C131.90310684 127.33797892 142.70618153 145.81597232 154 164 C154.64324219 165.03672852 155.28648437 166.07345703 155.94921875 167.14160156 C163.21376251 178.80070249 170.47990048 190.29887902 179.27954102 200.87646484 C180.81640625 202.76953125 180.81640625 202.76953125 183 206 C182.53662531 209.91745269 180.42829743 211.98302441 178 215 C175.76827109 218.825821 175.65444736 222.1383781 176.28515625 226.42578125 C179.51147379 238.04405043 189.33921961 248.5029612 197.8359375 256.75390625 C200 259 200 259 200 261 C200.59941406 261.26683594 201.19882812 261.53367187 201.81640625 261.80859375 C204.05126504 263.02797109 205.25618766 264.17604079 206.9375 266.0625 C215.58272532 274.92987243 228.09886494 283.79455107 240.6875 284.8125 C253.33011909 284.22141651 265.15490196 275.36905503 274 267 C274.6408252 266.40010254 275.28165039 265.80020508 275.94189453 265.18212891 C296.15027048 246.81991515 296.15027048 246.81991515 306.13671875 222.5703125 C305.91796036 218.45765478 304.36349832 215.3227103 302 212 C301.15695312 211.27103516 301.15695312 211.27103516 300.296875 210.52734375 C299.65492188 209.77130859 299.65492188 209.77130859 299 209 C299.44167437 205.82759687 300.65250588 203.80218192 302.5546875 201.26953125 C303.08102783 200.55861328 303.60736816 199.84769531 304.1496582 199.11523438 C304.719021 198.35533203 305.28838379 197.59542969 305.875 196.8125 C312.28381047 188.08635479 318.25987786 179.17739603 324 170 C324.59683594 169.04593262 325.19367187 168.09186523 325.80859375 167.10888672 C336.23006782 150.39940554 346.2514867 133.47590954 356.06787109 116.40527344 C364.44860459 101.83773944 372.79150612 87.39213258 383 74 C383.72445312 73.04609375 384.44890625 72.0921875 385.1953125 71.109375 C389.84957792 65.15921607 394.80735461 59.48463565 400 54 C400.88389404 53.06510742 400.88389404 53.06510742 401.78564453 52.11132812 C420.96991818 31.98949509 442.73096593 16.60372893 468 5 C469.72669922 4.20142578 469.72669922 4.20142578 471.48828125 3.38671875 C491.95795452 -5.42503159 514.30975509 -9.43093786 536.5 -9.3125 C537.24666931 -9.31001251 537.99333862 -9.30752502 538.76263428 -9.30496216 C583.94997568 -9.07288289 625.46391178 9.67099334 666 28 C667.08522949 28.48968262 668.17045898 28.97936523 669.28857422 29.48388672 C679.49567019 34.09720198 689.66606062 38.75392334 699.66186523 43.81054688 C715.63296297 51.88371622 731.75525193 59.60038841 748.1875 66.6875 C749.93208496 67.44498535 749.93208496 67.44498535 751.71191406 68.21777344 C757.42927759 70.65322615 762.91210492 72.72890103 769 74 C767.33834148 82.16107074 758.20668447 89.08870349 752.0390625 94.2734375 C749.75796533 96.20494123 747.57264829 98.22415483 745.375 100.25 C739.79657518 105.27736462 733.92523564 109.8712859 727.98632812 114.45947266 C725.8945743 116.08176452 723.81374211 117.71733548 721.734375 119.35546875 C712.07624829 126.94794157 702.27050311 134.29011958 692.25244141 141.40087891 C690.79697944 142.43418433 689.34339111 143.47013623 687.89208984 144.50927734 C671.60469468 156.16694539 654.85888303 167.15883165 638.17346191 178.23414612 C634.18493252 180.88179264 630.19908341 183.5332839 626.21948242 186.19433594 C617.71769374 191.87870772 609.19076006 197.50870159 600.5625 203 C599.4995874 203.67804688 598.4366748 204.35609375 597.34155273 205.0546875 C594.22912517 207.03870507 591.11480906 209.01972404 588 211 C587.15824219 211.53625 586.31648437 212.0725 585.44921875 212.625 C571.39670867 221.57386214 557.21260727 230.30824338 543 239 C541.88447754 239.68223633 540.76895508 240.36447266 539.61962891 241.06738281 C522.76598306 251.36210078 505.81946088 261.495014 488.82269287 271.55142212 C484.52970325 274.09198314 480.24175824 276.64084518 475.95703125 279.1953125 C451.86923789 293.54293381 427.49048075 307.35226883 403 321 C401.40493041 321.89059364 399.8098771 322.78121646 398.21484375 323.671875 C386.51993226 330.19408642 374.76873894 336.61213956 363 343 C361.99437012 343.54672363 360.98874023 344.09344727 359.95263672 344.65673828 C342.75104377 354.0009134 325.4275807 363.0866572 308 372 C306.41010254 372.81645996 306.41010254 372.81645996 304.78808594 373.64941406 C248.1679212 402.66927 248.1679212 402.66927 232.79736328 398.38623047 C230.43766723 397.59619778 228.12763853 396.7249356 225.8125 395.8125 C224.92377197 395.46719238 224.03504395 395.12188477 223.11938477 394.76611328 C195.33103047 383.70736219 168.15416132 369.84685484 142.01147461 355.39575195 C135.58216758 351.84266727 129.09062415 348.43011315 122.5625 345.0625 C113.78038633 340.51987369 105.14686267 335.75737325 96.55932617 330.85791016 C90.0385596 327.13984644 83.47564403 323.51165552 76.875 319.9375 C67.10839925 314.63835101 57.44530786 309.17448072 47.81933594 303.62451172 C44.8322847 301.90336183 41.84204918 300.18782943 38.8515625 298.47265625 C24.96328611 290.49646706 11.15302697 282.39567166 -2.60939026 274.20440674 C-7.03554763 271.57078337 -11.46811809 268.94813602 -15.90234375 266.328125 C-31.64544981 257.02079274 -47.29599855 247.5854671 -62.84228516 237.95166016 C-66.0600963 235.96285682 -69.28476346 233.98564648 -72.51171875 232.01171875 C-85.45412104 224.09025885 -98.29687384 216.03186871 -111.0546875 207.81640625 C-114.67092924 205.48854447 -118.29674538 203.1791857 -121.9453125 200.90234375 C-135.11757081 192.66210977 -147.99801058 184.0042974 -160.875 175.3125 C-161.79843201 174.68920807 -162.72186401 174.06591614 -163.67327881 173.42373657 C-172.7675973 167.28130964 -181.8493832 161.12090858 -190.89453125 154.90625 C-191.83176529 154.26234062 -191.83176529 154.26234062 -192.78793335 153.60542297 C-216.63101371 137.1850196 -240.15393817 120.01857426 -262 101 C-262.82242188 100.28972656 -263.64484375 99.57945312 -264.4921875 98.84765625 C-272.34752751 91.93238152 -279.65135968 84.44436409 -287 77 C-286.67 76.01 -286.34 75.02 -286 74 C-281.05 73.01 -281.05 73.01 -276 72 C-276 71.34 -276 70.68 -276 70 C-275.40912598 69.75991211 -274.81825195 69.51982422 -274.20947266 69.27246094 C-254.51410094 61.2401647 -235.07278756 52.66716235 -216.08789062 43.06445312 C-149.64065799 9.46600626 -74.93319163 -26.19271065 0 0 Z " fill="#CECECD" transform="translate(299,609)"/>
<path d="M0 0 C2.20454544 0.01828992 4.40866755 0.02050841 6.61328125 0.02026367 C26.81705768 0.0682788 49.71274301 1.07605003 65.39453125 15.70581055 C69.41233774 20.29323011 71.50278892 24.73246503 71.39453125 30.89331055 C70.42324829 37.78628638 66.33364557 42.79583335 62.20703125 48.20581055 C61.58054687 49.05530273 60.9540625 49.90479492 60.30859375 50.7800293 C49.81563524 64.32133741 37.11066473 77.58779437 22.20703125 86.20581055 C21.27632812 86.7472168 20.345625 87.28862305 19.38671875 87.84643555 C12.73346361 91.29627155 6.62625682 92.71421102 -0.79296875 91.20581055 C-11.13291492 87.62720743 -19.72489391 81.48289766 -27.79296875 74.20581055 C-28.52 73.59737305 -29.24703125 72.98893555 -29.99609375 72.36206055 C-34.76841737 68.3547659 -38.79779202 63.97556236 -42.79296875 59.20581055 C-43.98792969 57.84262695 -43.98792969 57.84262695 -45.20703125 56.4519043 C-60.65785758 38.55041821 -60.65785758 38.55041821 -61.06640625 28.29956055 C-60.56111434 24.43046824 -58.89449021 21.44001646 -56.79296875 18.20581055 C-56.25671875 17.33956055 -55.72046875 16.47331055 -55.16796875 15.58081055 C-41.10285733 1.51569912 -18.76143718 -0.16037197 0 0 Z " fill="#010735" transform="translate(534.79296875,802.794189453125)"/>
<path d="M0 0 C2.64 1.32 5.28 2.64 8 4 C3.82412255 5.39195915 1.86525224 3.82323219 -2 2 C-1.34 1.34 -0.68 0.68 0 0 Z " fill="#CE8330" transform="translate(1055,677)"/>
</svg>
